%TF.GenerationSoftware,KiCad,Pcbnew,8.0.8*%
%TF.CreationDate,2025-02-18T20:07:34-06:00*%
%TF.ProjectId,Lab5,4c616235-2e6b-4696-9361-645f70636258,rev?*%
%TF.SameCoordinates,Original*%
%TF.FileFunction,Legend,Top*%
%TF.FilePolarity,Positive*%
%FSLAX46Y46*%
G04 Gerber Fmt 4.6, Leading zero omitted, Abs format (unit mm)*
G04 Created by KiCad (PCBNEW 8.0.8) date 2025-02-18 20:07:34*
%MOMM*%
%LPD*%
G01*
G04 APERTURE LIST*
%ADD10C,0.150000*%
%ADD11C,0.120000*%
G04 APERTURE END LIST*
D10*
X37023333Y-16084819D02*
X36690000Y-15608628D01*
X36451905Y-16084819D02*
X36451905Y-15084819D01*
X36451905Y-15084819D02*
X36832857Y-15084819D01*
X36832857Y-15084819D02*
X36928095Y-15132438D01*
X36928095Y-15132438D02*
X36975714Y-15180057D01*
X36975714Y-15180057D02*
X37023333Y-15275295D01*
X37023333Y-15275295D02*
X37023333Y-15418152D01*
X37023333Y-15418152D02*
X36975714Y-15513390D01*
X36975714Y-15513390D02*
X36928095Y-15561009D01*
X36928095Y-15561009D02*
X36832857Y-15608628D01*
X36832857Y-15608628D02*
X36451905Y-15608628D01*
X37975714Y-16084819D02*
X37404286Y-16084819D01*
X37690000Y-16084819D02*
X37690000Y-15084819D01*
X37690000Y-15084819D02*
X37594762Y-15227676D01*
X37594762Y-15227676D02*
X37499524Y-15322914D01*
X37499524Y-15322914D02*
X37404286Y-15370533D01*
X27454819Y-28833333D02*
X28169104Y-28833333D01*
X28169104Y-28833333D02*
X28311961Y-28880952D01*
X28311961Y-28880952D02*
X28407200Y-28976190D01*
X28407200Y-28976190D02*
X28454819Y-29119047D01*
X28454819Y-29119047D02*
X28454819Y-29214285D01*
X28454819Y-27833333D02*
X28454819Y-28404761D01*
X28454819Y-28119047D02*
X27454819Y-28119047D01*
X27454819Y-28119047D02*
X27597676Y-28214285D01*
X27597676Y-28214285D02*
X27692914Y-28309523D01*
X27692914Y-28309523D02*
X27740533Y-28404761D01*
X38991905Y-26994819D02*
X38991905Y-25994819D01*
X38991905Y-25994819D02*
X39230000Y-25994819D01*
X39230000Y-25994819D02*
X39372857Y-26042438D01*
X39372857Y-26042438D02*
X39468095Y-26137676D01*
X39468095Y-26137676D02*
X39515714Y-26232914D01*
X39515714Y-26232914D02*
X39563333Y-26423390D01*
X39563333Y-26423390D02*
X39563333Y-26566247D01*
X39563333Y-26566247D02*
X39515714Y-26756723D01*
X39515714Y-26756723D02*
X39468095Y-26851961D01*
X39468095Y-26851961D02*
X39372857Y-26947200D01*
X39372857Y-26947200D02*
X39230000Y-26994819D01*
X39230000Y-26994819D02*
X38991905Y-26994819D01*
X40515714Y-26994819D02*
X39944286Y-26994819D01*
X40230000Y-26994819D02*
X40230000Y-25994819D01*
X40230000Y-25994819D02*
X40134762Y-26137676D01*
X40134762Y-26137676D02*
X40039524Y-26232914D01*
X40039524Y-26232914D02*
X39944286Y-26280533D01*
D11*
%TO.C,R1*%
X33920000Y-16630000D02*
X40460000Y-16630000D01*
X33920000Y-16960000D02*
X33920000Y-16630000D01*
X33920000Y-19040000D02*
X33920000Y-19370000D01*
X33920000Y-19370000D02*
X40460000Y-19370000D01*
X40460000Y-16630000D02*
X40460000Y-16960000D01*
X40460000Y-19370000D02*
X40460000Y-19040000D01*
%TO.C,J1*%
X26910000Y-25440000D02*
X19090000Y-25440000D01*
X25310000Y-25440000D02*
X25310000Y-26360000D01*
X19090000Y-25440000D02*
X19090000Y-31560000D01*
X22950000Y-26200000D02*
X21350000Y-26200000D01*
X21350000Y-26200000D02*
X21350000Y-27200000D01*
X26910000Y-26360000D02*
X26910000Y-25440000D01*
X25310000Y-26360000D02*
X26910000Y-26360000D01*
X25310000Y-26640000D02*
X25310000Y-26360000D01*
X25310000Y-26640000D02*
X26525000Y-26640000D01*
X21350000Y-26700000D02*
X19090000Y-26700000D01*
X22950000Y-27200000D02*
X22950000Y-26200000D01*
X21350000Y-27200000D02*
X22950000Y-27200000D01*
X21350000Y-27200000D02*
X19090000Y-27200000D01*
X23450000Y-28000000D02*
X23450000Y-29000000D01*
X19090000Y-28000000D02*
X23450000Y-28000000D01*
X23450000Y-29000000D02*
X19090000Y-29000000D01*
X22950000Y-29800000D02*
X22950000Y-30800000D01*
X21350000Y-29800000D02*
X22950000Y-29800000D01*
X26910000Y-30640000D02*
X25310000Y-30640000D01*
X25310000Y-30640000D02*
X25310000Y-30360000D01*
X22950000Y-30800000D02*
X21350000Y-30800000D01*
X21350000Y-30800000D02*
X21350000Y-29800000D01*
X26910000Y-31560000D02*
X26910000Y-30640000D01*
X25310000Y-31560000D02*
X25310000Y-30640000D01*
X19090000Y-31560000D02*
X26910000Y-31560000D01*
%TO.C,D1*%
X38170000Y-28264000D02*
X38170000Y-28420000D01*
X38170000Y-30580000D02*
X38170000Y-30736000D01*
X38170000Y-28264484D02*
G75*
G02*
X41401397Y-28419939I1560000J-1235516D01*
G01*
X38689039Y-28420000D02*
G75*
G02*
X40770910Y-28419951I1040961J-1080000D01*
G01*
X40770910Y-30580049D02*
G75*
G02*
X38689039Y-30580000I-1040910J1080049D01*
G01*
X41401397Y-30580061D02*
G75*
G02*
X38170000Y-30735516I-1671397J1080061D01*
G01*
%TD*%
M02*
